<svg xmlns="http://www.w3.org/2000/svg" xmlns:xlink="http://www.w3.org/1999/xlink" width="100" zoomAndPan="magnify" viewBox="0 0 75 37.5" height="50" preserveAspectRatio="xMidYMid meet" version="1.0"><defs><g/></defs><g fill="#000000" fill-opacity="1"><g transform="translate(10.300164, 26.274671)"><g><path d="M 4 -3.125 C 3.84375 -2.800781 3.570312 -2.4375 3.1875 -2.03125 C 2.800781 -1.632812 2.363281 -1.378906 1.875 -1.265625 C 1.394531 -1.160156 0.9375 -1.328125 0.5 -1.765625 C 0.320312 -1.960938 0.191406 -2.1875 0.109375 -2.4375 C 0.0351562 -2.695312 0.0078125 -2.953125 0.03125 -3.203125 C 0.03125 -3.265625 0.03125 -3.347656 0.03125 -3.453125 C 0.03125 -3.710938 0.0390625 -4.015625 0.0625 -4.359375 C 0.0820312 -4.703125 0.132812 -5.007812 0.21875 -5.28125 C 0.300781 -5.5625 0.425781 -5.734375 0.59375 -5.796875 C 1.082031 -5.921875 1.347656 -5.75 1.390625 -5.28125 C 1.390625 -5.132812 1.382812 -4.988281 1.375 -4.84375 C 1.363281 -4.757812 1.359375 -4.6875 1.359375 -4.625 C 1.347656 -4.40625 1.335938 -4.1875 1.328125 -3.96875 C 1.328125 -3.800781 1.316406 -3.632812 1.296875 -3.46875 C 1.285156 -2.71875 1.453125 -2.269531 1.796875 -2.125 C 2.140625 -1.988281 2.53125 -2.140625 2.96875 -2.578125 C 3.414062 -3.023438 3.707031 -3.394531 3.84375 -3.6875 C 3.976562 -3.976562 4.078125 -4.039062 4.140625 -3.875 C 4.203125 -3.707031 4.15625 -3.457031 4 -3.125 Z M 1.28125 -7.375 C 1.21875 -7.320312 1.140625 -7.285156 1.046875 -7.265625 C 0.953125 -7.253906 0.867188 -7.265625 0.796875 -7.296875 C 0.734375 -7.335938 0.691406 -7.394531 0.671875 -7.46875 C 0.660156 -7.550781 0.65625 -7.644531 0.65625 -7.75 C 0.65625 -7.769531 0.660156 -7.789062 0.671875 -7.8125 C 0.679688 -7.894531 0.707031 -7.984375 0.75 -8.078125 C 0.851562 -8.328125 1.066406 -8.441406 1.390625 -8.421875 C 1.503906 -8.410156 1.59375 -8.363281 1.65625 -8.28125 C 1.71875 -8.207031 1.726562 -8.117188 1.6875 -8.015625 C 1.613281 -7.765625 1.476562 -7.550781 1.28125 -7.375 Z M 1.28125 -7.375 "/></g></g></g><g fill="#000000" fill-opacity="1"><g transform="translate(14.08471, 26.274671)"><g><path d="M 6.375 -2.96875 C 6.769531 -3.59375 7.003906 -3.988281 7.078125 -4.15625 C 7.148438 -4.332031 7.207031 -4.328125 7.25 -4.140625 C 7.300781 -3.953125 7.175781 -3.53125 6.875 -2.875 C 6.570312 -2.226562 6.195312 -1.726562 5.75 -1.375 C 5.3125 -1.03125 4.898438 -0.898438 4.515625 -0.984375 C 4.140625 -1.078125 3.867188 -1.34375 3.703125 -1.78125 C 3.535156 -2.226562 3.488281 -2.785156 3.5625 -3.453125 C 3.5625 -3.460938 3.566406 -3.488281 3.578125 -3.53125 C 3.585938 -3.644531 3.601562 -3.8125 3.625 -4.03125 C 3.65625 -4.257812 3.675781 -4.488281 3.6875 -4.71875 C 3.707031 -4.957031 3.703125 -5.15625 3.671875 -5.3125 C 3.640625 -5.46875 3.566406 -5.519531 3.453125 -5.46875 C 3.179688 -5.320312 2.914062 -5.03125 2.65625 -4.59375 C 2.394531 -4.164062 2.160156 -3.710938 1.953125 -3.234375 C 1.742188 -2.753906 1.597656 -2.367188 1.515625 -2.078125 C 1.472656 -1.984375 1.4375 -1.882812 1.40625 -1.78125 C 1.363281 -1.65625 1.3125 -1.523438 1.25 -1.390625 C 1.101562 -1.003906 0.847656 -0.851562 0.484375 -0.9375 C 0.273438 -0.988281 0.148438 -1.113281 0.109375 -1.3125 C 0.0976562 -1.476562 0.09375 -1.628906 0.09375 -1.765625 C 0.09375 -1.859375 0.0859375 -1.945312 0.078125 -2.03125 C 0.0546875 -3.164062 0.03125 -4.3125 0 -5.46875 C 0.0078125 -5.601562 0.0664062 -5.695312 0.171875 -5.75 C 0.285156 -5.800781 0.414062 -5.828125 0.5625 -5.828125 C 0.675781 -5.828125 0.78125 -5.796875 0.875 -5.734375 C 0.976562 -5.671875 1.046875 -5.539062 1.078125 -5.34375 C 1.085938 -5.28125 1.09375 -5.210938 1.09375 -5.140625 C 1.101562 -5.109375 1.109375 -5.078125 1.109375 -5.046875 C 1.117188 -4.890625 1.125 -4.753906 1.125 -4.640625 C 1.125 -4.472656 1.132812 -4.359375 1.15625 -4.296875 C 1.1875 -4.234375 1.238281 -4.234375 1.3125 -4.296875 C 1.382812 -4.367188 1.507812 -4.53125 1.6875 -4.78125 C 1.976562 -5.226562 2.335938 -5.609375 2.765625 -5.921875 C 3.160156 -6.203125 3.59375 -6.320312 4.0625 -6.28125 C 4.46875 -6.238281 4.742188 -6.023438 4.890625 -5.640625 C 4.941406 -5.441406 4.96875 -5.242188 4.96875 -5.046875 C 4.96875 -4.847656 4.957031 -4.648438 4.9375 -4.453125 C 4.925781 -4.242188 4.910156 -4.035156 4.890625 -3.828125 C 4.867188 -3.753906 4.851562 -3.6875 4.84375 -3.625 C 4.78125 -2.882812 4.800781 -2.390625 4.90625 -2.140625 C 5.019531 -1.890625 5.191406 -1.804688 5.421875 -1.890625 C 5.660156 -1.984375 5.976562 -2.34375 6.375 -2.96875 Z M 6.375 -2.96875 "/></g></g></g><g fill="#000000" fill-opacity="1"><g transform="translate(20.867593, 26.274671)"><g><path d="M 4.671875 -4.203125 C 4.671875 -4.085938 4.421875 -3.878906 3.921875 -3.578125 C 3.429688 -3.273438 3.066406 -3.046875 2.828125 -2.890625 C 2.585938 -2.742188 2.46875 -2.65625 2.46875 -2.625 C 2.519531 -2.519531 2.570312 -2.34375 2.625 -2.09375 C 2.675781 -1.851562 2.691406 -1.59375 2.671875 -1.3125 C 2.660156 -1.03125 2.570312 -0.78125 2.40625 -0.5625 C 2.238281 -0.34375 1.957031 -0.207031 1.5625 -0.15625 C 1.164062 -0.125 0.8125 -0.179688 0.5 -0.328125 C 0.1875 -0.484375 -0.00390625 -0.707031 -0.078125 -1 C -0.160156 -1.289062 -0.0664062 -1.628906 0.203125 -2.015625 C 0.378906 -2.222656 0.59375 -2.410156 0.84375 -2.578125 C 0.9375 -2.628906 1.03125 -2.691406 1.125 -2.765625 C 0.8125 -3.085938 0.519531 -3.421875 0.25 -3.765625 C -0.0195312 -4.109375 -0.191406 -4.414062 -0.265625 -4.6875 C -0.347656 -5 -0.296875 -5.296875 -0.109375 -5.578125 C 0.078125 -5.859375 0.398438 -6.019531 0.859375 -6.0625 C 1.085938 -6.082031 1.300781 -6.070312 1.5 -6.03125 C 1.695312 -5.988281 1.878906 -5.890625 2.046875 -5.734375 C 2.085938 -5.703125 2.113281 -5.664062 2.125 -5.625 C 2.144531 -5.582031 2.140625 -5.523438 2.109375 -5.453125 C 2.046875 -5.347656 1.957031 -5.296875 1.84375 -5.296875 C 1.757812 -5.296875 1.679688 -5.304688 1.609375 -5.328125 C 1.523438 -5.367188 1.453125 -5.40625 1.390625 -5.4375 C 1.335938 -5.457031 1.289062 -5.476562 1.25 -5.5 C 1.101562 -5.5625 0.988281 -5.554688 0.90625 -5.484375 C 0.832031 -5.410156 0.796875 -5.296875 0.796875 -5.140625 C 0.804688 -4.878906 0.910156 -4.597656 1.109375 -4.296875 C 1.316406 -4.003906 1.519531 -3.734375 1.71875 -3.484375 C 1.800781 -3.398438 1.875 -3.316406 1.9375 -3.234375 C 1.988281 -3.171875 2.132812 -3.175781 2.375 -3.25 C 2.625 -3.332031 3.066406 -3.539062 3.703125 -3.875 C 4.347656 -4.21875 4.671875 -4.328125 4.671875 -4.203125 Z M 1.234375 -0.734375 C 1.378906 -0.742188 1.472656 -0.828125 1.515625 -0.984375 C 1.566406 -1.140625 1.585938 -1.304688 1.578125 -1.484375 C 1.566406 -1.671875 1.554688 -1.8125 1.546875 -1.90625 C 1.523438 -1.96875 1.488281 -2.003906 1.4375 -2.015625 C 1.382812 -2.035156 1.332031 -2.035156 1.28125 -2.015625 C 1.113281 -1.878906 0.988281 -1.707031 0.90625 -1.5 C 0.832031 -1.289062 0.84375 -1.113281 0.9375 -0.96875 C 0.96875 -0.90625 1.003906 -0.851562 1.046875 -0.8125 C 1.097656 -0.769531 1.160156 -0.742188 1.234375 -0.734375 Z M 1.234375 -0.734375 "/></g></g></g><g fill="#000000" fill-opacity="1"><g transform="translate(25.022114, 26.274671)"><g><path d="M 5.65625 -3.703125 C 5.9375 -3.972656 6.054688 -4.039062 6.015625 -3.90625 C 5.984375 -3.769531 5.828125 -3.523438 5.546875 -3.171875 C 5.273438 -2.816406 4.9375 -2.429688 4.53125 -2.015625 C 4.132812 -1.597656 3.707031 -1.234375 3.25 -0.921875 C 2.800781 -0.617188 2.375 -0.457031 1.96875 -0.4375 C 1.46875 -0.4375 1.066406 -0.582031 0.765625 -0.875 C 0.460938 -1.164062 0.25 -1.554688 0.125 -2.046875 C 0 -2.535156 -0.0507812 -3.0625 -0.03125 -3.625 C -0.0078125 -4.25 0.0078125 -4.878906 0.03125 -5.515625 C 0.0390625 -5.835938 0.0507812 -6.148438 0.0625 -6.453125 C 0.0820312 -6.960938 0.0976562 -7.46875 0.109375 -7.96875 C 0.117188 -8.132812 0.09375 -8.269531 0.03125 -8.375 C -0.0195312 -8.476562 -0.128906 -8.535156 -0.296875 -8.546875 C -0.472656 -8.554688 -0.695312 -8.5625 -0.96875 -8.5625 C -1.207031 -8.5625 -1.410156 -8.5625 -1.578125 -8.5625 C -1.816406 -8.59375 -1.972656 -8.65625 -2.046875 -8.75 C -2.128906 -8.851562 -2.066406 -8.957031 -1.859375 -9.0625 C -1.722656 -9.113281 -1.550781 -9.140625 -1.34375 -9.140625 C -1.144531 -9.148438 -0.945312 -9.148438 -0.75 -9.140625 C -0.625 -9.128906 -0.515625 -9.125 -0.421875 -9.125 C -0.117188 -9.125 0.0625 -9.171875 0.125 -9.265625 C 0.195312 -9.367188 0.238281 -9.5625 0.25 -9.84375 C 0.269531 -10.132812 0.285156 -10.429688 0.296875 -10.734375 C 0.304688 -10.898438 0.320312 -11.0625 0.34375 -11.21875 C 0.34375 -11.457031 0.40625 -11.671875 0.53125 -11.859375 C 0.65625 -12.035156 0.820312 -12.101562 1.03125 -12.0625 C 1.207031 -12.019531 1.304688 -11.910156 1.328125 -11.734375 C 1.347656 -11.429688 1.359375 -11.128906 1.359375 -10.828125 C 1.367188 -10.660156 1.367188 -10.488281 1.359375 -10.3125 C 1.359375 -10.132812 1.363281 -9.945312 1.375 -9.75 C 1.363281 -9.488281 1.394531 -9.320312 1.46875 -9.25 C 1.539062 -9.175781 1.71875 -9.140625 2 -9.140625 C 2.457031 -9.140625 2.914062 -9.140625 3.375 -9.140625 C 3.570312 -9.140625 4.179688 -9.15625 5.203125 -9.1875 C 6.222656 -9.21875 6.769531 -9.132812 6.84375 -8.9375 C 6.925781 -8.75 6.285156 -8.640625 4.921875 -8.609375 C 4.085938 -8.554688 3.445312 -8.53125 3 -8.53125 C 2.695312 -8.539062 2.425781 -8.546875 2.1875 -8.546875 C 1.78125 -8.546875 1.523438 -8.472656 1.421875 -8.328125 C 1.328125 -8.191406 1.285156 -7.910156 1.296875 -7.484375 C 1.285156 -7.117188 1.269531 -6.679688 1.25 -6.171875 C 1.175781 -5.097656 1.140625 -4.007812 1.140625 -2.90625 C 1.171875 -2.144531 1.304688 -1.648438 1.546875 -1.421875 C 1.796875 -1.203125 2.117188 -1.160156 2.515625 -1.296875 C 2.910156 -1.441406 3.335938 -1.695312 3.796875 -2.0625 C 4.265625 -2.425781 4.722656 -2.816406 5.171875 -3.234375 C 5.265625 -3.359375 5.382812 -3.476562 5.53125 -3.59375 C 5.570312 -3.632812 5.613281 -3.671875 5.65625 -3.703125 Z M 5.65625 -3.703125 "/></g></g></g><g fill="#000000" fill-opacity="1"><g transform="translate(30.579459, 26.274671)"><g><path d="M 8.71875 -3.953125 C 8.570312 -3.523438 8.289062 -3.03125 7.875 -2.46875 C 7.457031 -1.914062 6.9375 -1.554688 6.3125 -1.390625 C 5.6875 -1.234375 5.144531 -1.253906 4.6875 -1.453125 C 4.226562 -1.660156 3.976562 -2.207031 3.9375 -3.09375 C 3.414062 -2.09375 2.914062 -1.445312 2.4375 -1.15625 C 1.96875 -0.875 1.484375 -0.769531 0.984375 -0.84375 C 0.398438 -0.9375 0.0078125 -1.160156 -0.1875 -1.515625 C -0.394531 -1.867188 -0.460938 -2.273438 -0.390625 -2.734375 C -0.328125 -3.203125 -0.1875 -3.648438 0.03125 -4.078125 C 0.195312 -4.390625 0.429688 -4.679688 0.734375 -4.953125 C 1.035156 -5.234375 1.351562 -5.453125 1.6875 -5.609375 C 2.082031 -5.804688 2.484375 -5.898438 2.890625 -5.890625 C 3.304688 -5.878906 3.75 -5.742188 4.21875 -5.484375 C 4.226562 -5.472656 4.234375 -5.484375 4.234375 -5.515625 C 4.234375 -5.566406 4.242188 -5.625 4.265625 -5.6875 C 4.296875 -5.757812 4.335938 -5.816406 4.390625 -5.859375 C 4.546875 -5.972656 4.726562 -6.03125 4.9375 -6.03125 C 5.144531 -6.03125 5.304688 -5.921875 5.421875 -5.703125 C 5.441406 -5.429688 5.414062 -5.085938 5.34375 -4.671875 C 5.164062 -3.742188 5.160156 -3.078125 5.328125 -2.671875 C 5.503906 -2.265625 5.804688 -2.078125 6.234375 -2.109375 C 6.660156 -2.140625 7.21875 -2.5625 7.90625 -3.375 C 8.59375 -4.195312 8.863281 -4.390625 8.71875 -3.953125 Z M 1.125 -1.78125 C 1.363281 -1.613281 1.632812 -1.640625 1.9375 -1.859375 C 2.25 -2.078125 2.546875 -2.382812 2.828125 -2.78125 C 3.109375 -3.175781 3.34375 -3.566406 3.53125 -3.953125 C 3.726562 -4.347656 3.835938 -4.644531 3.859375 -4.84375 C 3.285156 -5.144531 2.789062 -5.191406 2.375 -4.984375 C 1.96875 -4.785156 1.640625 -4.457031 1.390625 -4 C 1.148438 -3.539062 1.003906 -3.09375 0.953125 -2.65625 C 0.910156 -2.226562 0.96875 -1.9375 1.125 -1.78125 Z M 1.125 -1.78125 "/></g></g></g><g fill="#000000" fill-opacity="1"><g transform="translate(38.74975, 26.274671)"><g><path d="M 12.09375 -3.765625 C 12.132812 -3.847656 12.203125 -3.890625 12.296875 -3.890625 C 12.390625 -3.898438 12.472656 -3.84375 12.546875 -3.71875 C 12.566406 -3.6875 12.539062 -3.597656 12.46875 -3.453125 C 12.394531 -3.316406 12.296875 -3.160156 12.171875 -2.984375 C 12.046875 -2.804688 11.925781 -2.644531 11.8125 -2.5 C 11.707031 -2.351562 11.628906 -2.257812 11.578125 -2.21875 C 11.066406 -1.644531 10.554688 -1.222656 10.046875 -0.953125 C 9.535156 -0.691406 8.976562 -0.640625 8.375 -0.796875 C 7.769531 -0.953125 7.097656 -1.378906 6.359375 -2.078125 C 6.242188 -2.203125 6.128906 -2.328125 6.015625 -2.453125 C 5.984375 -2.484375 5.957031 -2.515625 5.9375 -2.546875 C 5.8125 -2.691406 5.675781 -2.710938 5.53125 -2.609375 C 5.375 -2.492188 5.21875 -2.378906 5.0625 -2.265625 C 4.914062 -2.160156 4.769531 -2.066406 4.625 -1.984375 C 4.15625 -1.648438 3.65625 -1.367188 3.125 -1.140625 C 2.550781 -0.890625 1.957031 -0.796875 1.34375 -0.859375 C 0.375 -0.972656 -0.128906 -1.507812 -0.171875 -2.46875 C -0.179688 -3.144531 -0.0351562 -3.75 0.265625 -4.28125 C 0.566406 -4.820312 0.984375 -5.21875 1.515625 -5.46875 C 2.054688 -5.726562 2.675781 -5.78125 3.375 -5.625 C 3.445312 -5.613281 3.550781 -5.59375 3.6875 -5.5625 C 3.757812 -5.53125 3.851562 -5.503906 3.96875 -5.484375 C 3.90625 -5.640625 3.84375 -5.78125 3.78125 -5.90625 C 3.675781 -6.113281 3.585938 -6.300781 3.515625 -6.46875 C 3.046875 -7.425781 2.664062 -8.523438 2.375 -9.765625 C 2.082031 -11.003906 1.9375 -12.269531 1.9375 -13.5625 C 1.945312 -14.863281 2.164062 -16.070312 2.59375 -17.1875 C 3.019531 -18.3125 3.734375 -19.238281 4.734375 -19.96875 C 5.359375 -20.394531 6.007812 -20.625 6.6875 -20.65625 C 7.363281 -20.695312 8 -20.550781 8.59375 -20.21875 C 9.195312 -19.894531 9.6875 -19.398438 10.0625 -18.734375 C 10.539062 -17.835938 10.835938 -16.882812 10.953125 -15.875 C 11.160156 -14.257812 11.125 -12.75 10.84375 -11.34375 C 10.570312 -9.945312 10.09375 -8.625 9.40625 -7.375 C 8.71875 -6.125 7.84375 -4.910156 6.78125 -3.734375 C 6.675781 -3.617188 6.617188 -3.53125 6.609375 -3.46875 C 6.609375 -3.40625 6.660156 -3.3125 6.765625 -3.1875 C 6.984375 -2.90625 7.21875 -2.628906 7.46875 -2.359375 C 7.726562 -2.085938 8.015625 -1.863281 8.328125 -1.6875 C 8.765625 -1.5 9.234375 -1.492188 9.734375 -1.671875 C 10.242188 -1.859375 10.710938 -2.144531 11.140625 -2.53125 C 11.566406 -2.925781 11.882812 -3.335938 12.09375 -3.765625 Z M 4.53125 -3.078125 C 4.664062 -3.191406 4.675781 -3.320312 4.5625 -3.46875 C 4.5 -3.550781 4.429688 -3.632812 4.359375 -3.71875 C 4.171875 -3.945312 3.957031 -4.179688 3.71875 -4.421875 C 3.488281 -4.660156 3.242188 -4.835938 2.984375 -4.953125 C 2.734375 -5.078125 2.476562 -5.09375 2.21875 -5 C 1.863281 -4.820312 1.566406 -4.519531 1.328125 -4.09375 C 1.097656 -3.664062 0.960938 -3.222656 0.921875 -2.765625 C 0.878906 -2.316406 0.96875 -1.972656 1.1875 -1.734375 C 1.40625 -1.503906 1.769531 -1.484375 2.28125 -1.671875 C 3.101562 -2.035156 3.851562 -2.503906 4.53125 -3.078125 Z M 6.234375 -4.75 C 7.328125 -6.03125 8.140625 -7.289062 8.671875 -8.53125 C 9.210938 -9.769531 9.578125 -11.21875 9.765625 -12.875 C 9.816406 -13.28125 9.835938 -13.8125 9.828125 -14.46875 C 9.828125 -15.125 9.769531 -15.8125 9.65625 -16.53125 C 9.550781 -17.25 9.347656 -17.898438 9.046875 -18.484375 C 8.753906 -19.078125 8.34375 -19.503906 7.8125 -19.765625 C 7.289062 -20.023438 6.617188 -20.019531 5.796875 -19.75 C 4.898438 -19.226562 4.234375 -18.53125 3.796875 -17.65625 C 3.359375 -16.78125 3.109375 -15.800781 3.046875 -14.71875 C 2.984375 -13.644531 3.050781 -12.546875 3.25 -11.421875 C 3.457031 -10.304688 3.738281 -9.25 4.09375 -8.25 C 4.457031 -7.25 4.847656 -6.375 5.265625 -5.625 C 5.316406 -5.53125 5.363281 -5.4375 5.40625 -5.34375 C 5.53125 -5.039062 5.710938 -4.765625 5.953125 -4.515625 C 5.984375 -4.546875 6.019531 -4.578125 6.0625 -4.609375 C 6.125 -4.648438 6.179688 -4.695312 6.234375 -4.75 Z M 6.234375 -4.75 "/></g></g></g><g fill="#000000" fill-opacity="1"><g transform="translate(50.773951, 26.274671)"><g><path d="M 5.921875 -4.21875 C 5.992188 -4.289062 6.03125 -4.191406 6.03125 -3.921875 C 6.039062 -3.660156 5.800781 -3.289062 5.3125 -2.8125 C 4.832031 -2.34375 4.332031 -2.125 3.8125 -2.15625 C 3.695312 -2.164062 3.597656 -2.15625 3.515625 -2.125 C 3.441406 -2.09375 3.378906 -2.023438 3.328125 -1.921875 C 3.265625 -1.828125 3.195312 -1.742188 3.125 -1.671875 C 3.125 -1.671875 3.117188 -1.664062 3.109375 -1.65625 C 2.785156 -1.3125 2.410156 -1.085938 1.984375 -0.984375 C 1.554688 -0.878906 1.148438 -0.910156 0.765625 -1.078125 C 0.378906 -1.253906 0.101562 -1.585938 -0.0625 -2.078125 C -0.1875 -2.523438 -0.195312 -2.960938 -0.09375 -3.390625 C -0.0078125 -3.773438 0.128906 -4.140625 0.328125 -4.484375 C 0.554688 -4.929688 0.859375 -5.25 1.234375 -5.4375 C 1.617188 -5.625 2.050781 -5.726562 2.53125 -5.75 C 3.238281 -5.789062 3.6875 -5.457031 3.875 -4.75 C 3.976562 -4.34375 4.003906 -3.929688 3.953125 -3.515625 C 3.941406 -3.421875 3.925781 -3.328125 3.90625 -3.234375 C 3.882812 -3.160156 3.863281 -3.09375 3.84375 -3.03125 C 3.820312 -2.800781 3.921875 -2.695312 4.140625 -2.71875 C 4.734375 -2.820312 5.328125 -3.320312 5.921875 -4.21875 Z M 1.71875 -1.59375 C 2.082031 -1.757812 2.335938 -2.046875 2.484375 -2.453125 C 1.878906 -2.835938 1.472656 -3.390625 1.265625 -4.109375 C 1.078125 -3.773438 0.960938 -3.378906 0.921875 -2.921875 C 0.878906 -2.472656 0.921875 -2.097656 1.046875 -1.796875 C 1.179688 -1.503906 1.40625 -1.4375 1.71875 -1.59375 Z M 2.765625 -3.25 C 2.859375 -3.394531 2.914062 -3.570312 2.9375 -3.78125 C 2.957031 -3.988281 2.945312 -4.195312 2.90625 -4.40625 C 2.863281 -4.613281 2.804688 -4.773438 2.734375 -4.890625 C 2.671875 -5.015625 2.601562 -5.054688 2.53125 -5.015625 C 2.382812 -4.890625 2.300781 -4.707031 2.28125 -4.46875 C 2.269531 -4.238281 2.304688 -4.007812 2.390625 -3.78125 C 2.484375 -3.550781 2.609375 -3.375 2.765625 -3.25 Z M 2.765625 -3.25 "/></g></g></g><g fill="#000000" fill-opacity="1"><g transform="translate(56.516284, 26.274671)"><g><path d="M 8.375 -3.890625 C 8.476562 -3.921875 8.566406 -3.929688 8.640625 -3.921875 C 8.710938 -3.910156 8.75 -3.882812 8.75 -3.84375 C 8.757812 -3.800781 8.695312 -3.734375 8.5625 -3.640625 C 8.5 -3.609375 8.429688 -3.5625 8.359375 -3.5 C 8.085938 -3.3125 7.769531 -3.097656 7.40625 -2.859375 C 7.019531 -2.597656 6.671875 -2.359375 6.359375 -2.140625 C 6.046875 -1.921875 5.835938 -1.753906 5.734375 -1.640625 C 5.617188 -1.484375 5.546875 -1.3125 5.515625 -1.125 C 5.492188 -0.9375 5.476562 -0.734375 5.46875 -0.515625 C 5.445312 -0.347656 5.425781 -0.175781 5.40625 0 C 5.113281 1.8125 4.617188 3.359375 3.921875 4.640625 C 3.222656 5.929688 2.4375 6.957031 1.5625 7.71875 C 0.695312 8.488281 -0.144531 8.988281 -0.96875 9.21875 C -1.800781 9.457031 -2.503906 9.425781 -3.078125 9.125 C -3.648438 8.832031 -3.984375 8.273438 -4.078125 7.453125 C -4.140625 6.785156 -4.003906 6.101562 -3.671875 5.40625 C -3.347656 4.707031 -2.910156 4.039062 -2.359375 3.40625 C -1.816406 2.769531 -1.238281 2.1875 -0.625 1.65625 C -0.0078125 1.125 0.554688 0.679688 1.078125 0.328125 C 1.210938 0.222656 1.363281 0.117188 1.53125 0.015625 C 2.257812 -0.484375 3.003906 -0.972656 3.765625 -1.453125 C 4.253906 -1.722656 4.484375 -2.117188 4.453125 -2.640625 C 4.453125 -2.691406 4.453125 -2.769531 4.453125 -2.875 C 4.429688 -3.019531 4.421875 -3.179688 4.421875 -3.359375 C 4.128906 -2.890625 3.71875 -2.46875 3.1875 -2.09375 C 2.65625 -1.71875 2.109375 -1.445312 1.546875 -1.28125 C 0.992188 -1.125 0.519531 -1.132812 0.125 -1.3125 C -0.269531 -1.5 -0.476562 -1.921875 -0.5 -2.578125 C -0.476562 -2.910156 -0.378906 -3.21875 -0.203125 -3.5 C 0.222656 -4.257812 0.816406 -4.851562 1.578125 -5.28125 C 1.859375 -5.4375 2.195312 -5.546875 2.59375 -5.609375 C 3 -5.679688 3.390625 -5.675781 3.765625 -5.59375 C 4.140625 -5.519531 4.4375 -5.34375 4.65625 -5.0625 C 4.71875 -5.15625 4.800781 -5.210938 4.90625 -5.234375 C 5.019531 -5.265625 5.117188 -5.28125 5.203125 -5.28125 C 5.222656 -5.28125 5.238281 -5.28125 5.25 -5.28125 C 5.675781 -5.320312 5.875 -5.128906 5.84375 -4.703125 C 5.832031 -4.398438 5.820312 -4.097656 5.8125 -3.796875 C 5.800781 -3.566406 5.789062 -3.34375 5.78125 -3.125 C 5.789062 -2.875 5.929688 -2.789062 6.203125 -2.875 C 6.472656 -2.96875 6.800781 -3.125 7.1875 -3.34375 C 7.632812 -3.59375 8.03125 -3.773438 8.375 -3.890625 Z M 3.421875 -3.46875 C 3.898438 -3.945312 4.160156 -4.3125 4.203125 -4.5625 C 4.085938 -4.769531 3.910156 -4.894531 3.671875 -4.9375 C 3.441406 -4.988281 3.203125 -4.988281 2.953125 -4.9375 C 2.703125 -4.882812 2.492188 -4.804688 2.328125 -4.703125 C 1.859375 -4.410156 1.515625 -4.054688 1.296875 -3.640625 C 1.078125 -3.222656 0.992188 -2.863281 1.046875 -2.5625 C 1.109375 -2.269531 1.328125 -2.171875 1.703125 -2.265625 C 2.085938 -2.359375 2.660156 -2.757812 3.421875 -3.46875 Z M 4.0625 -0.09375 C 4.0625 -0.101562 4.066406 -0.113281 4.078125 -0.125 C 4.097656 -0.195312 4.113281 -0.285156 4.125 -0.390625 C 4.132812 -0.492188 4.128906 -0.578125 4.109375 -0.640625 C 4.085938 -0.703125 4.046875 -0.710938 3.984375 -0.671875 C 3.515625 -0.335938 3.019531 0.0234375 2.5 0.421875 C 2.1875 0.640625 1.894531 0.847656 1.625 1.046875 C 1.25 1.328125 0.804688 1.691406 0.296875 2.140625 C -0.210938 2.585938 -0.710938 3.09375 -1.203125 3.65625 C -1.691406 4.21875 -2.09375 4.789062 -2.40625 5.375 C -2.71875 5.96875 -2.875 6.535156 -2.875 7.078125 C -2.84375 7.847656 -2.628906 8.3125 -2.234375 8.46875 C -1.835938 8.625 -1.335938 8.523438 -0.734375 8.171875 C -0.140625 7.828125 0.476562 7.265625 1.125 6.484375 C 1.769531 5.703125 2.359375 4.75 2.890625 3.625 C 3.421875 2.507812 3.8125 1.269531 4.0625 -0.09375 Z M 4.0625 -0.09375 "/></g></g></g></svg>